<svg width="800" height="800" viewBox="0 0 800 800" fill="none" xmlns="http://www.w3.org/2000/svg">
<mask id="mask0_5_4" style="mask-type:luminance" maskUnits="userSpaceOnUse" x="66" y="70" width="668" height="660">
<path d="M733.333 70.8333H66.6667V729.924H733.333V70.8333Z" fill="white"/>
</mask>
<g mask="url(#mask0_5_4)">
<path d="M732.879 116.19C729.448 138.335 720.893 159.698 706.038 176.439C676.912 210.94 644.539 242.355 609.54 270.87C554.739 317.302 498.109 361.577 442.084 406.507C404.357 435.252 365.824 462.93 327.443 490.773C309.516 507.204 291.924 528.065 264.696 524.939C226.635 514.793 239.395 465.937 259.063 443.939C288.718 406.253 320.353 370.144 352.606 334.662C431.863 247.047 576.58 73.2934 700.883 71.1653C723.525 75.4972 733.958 93.7817 732.879 116.19Z" fill="#A00F44"/>
<path d="M676.049 554.292C676.477 571.908 669.182 585.332 655.676 595.934C611.78 640.482 521.66 451.044 500.402 419.382C493.432 405.357 492.748 386.457 504.996 375.77C528.951 354.596 553.147 333.694 577.278 312.721C593.154 296.555 617.345 279.67 630.928 308.1C651.618 388.616 669.468 471.163 676.049 554.292Z" fill="#A00F44"/>
<path d="M202.689 107.662C204.269 79.9125 239.791 69.9458 262.786 77.0595C334.456 96.8875 405.914 119.092 474.719 147.204C488.678 155.553 491.229 171.071 479.898 182.698C452.007 211.132 422.598 238.097 395.346 267.172C386.046 277.05 380.939 278.583 369.727 271.122C357.103 262.722 344.645 253.883 333.13 244.046C302.131 212.763 205.708 147.817 202.689 107.662Z" fill="#A00F44"/>
<path d="M317.852 682.486C318.363 674.837 323.855 668.323 330.507 662.421C376.697 622.607 421.365 581.21 464.363 537.976C471.03 531.564 478.338 525.787 485.618 520.056C502.805 505.285 521.817 526.789 505.344 542.083C456.122 590.797 406.163 638.777 357.219 687.768C346.633 701.382 317.915 707.204 317.852 682.486Z" fill="#A00F44"/>
<path d="M249.495 251.629C211.523 303.799 161.019 347.47 118.531 396.493C110.293 405.027 103.425 415.732 92.6025 421.189C78.9925 429.145 61.1819 412.87 68.9236 398.894C71.7273 393.248 76.2456 388.248 80.7349 383.678C120.01 346.466 155.747 305.809 193.398 266.999C206.696 255.599 240.365 218.045 249.495 251.629Z" fill="#A00F44"/>
<path d="M248.168 567.654C233.788 591.59 207.398 609.497 188.293 630.113C167.023 648.482 149.708 672.757 124.66 686.039C119.165 688.568 113.362 688.095 108.741 683.503C98.8409 673.702 109.04 660.47 116.298 652.692C149.933 621.099 183.843 589.8 217.719 558.466C227.761 546.114 247.919 547.187 248.168 567.654Z" fill="#A00F44"/>
<path d="M397.642 537.682C393.928 607.829 316.839 571.568 327.702 517.768C331.578 502.148 348.938 494.891 359.975 484.613C367.887 478.453 376.677 480.927 384.787 483.768C395.651 490.046 393.977 524.058 397.642 537.682Z" fill="#A00F44"/>
<path d="M199.323 388.9C211.899 355.564 248.105 357.768 274.566 373.172C307.806 391.331 268.282 419.795 253.823 436.519C251.755 438.604 247.142 439.891 244.284 439.186C217.946 434.07 205.827 413.957 199.323 388.9Z" fill="#A00F44"/>
<path d="M509.692 729.558C489.472 730.552 484.829 710.609 497.283 698.846C504.234 692.431 511.184 686.01 517.997 679.448C532.771 665.216 547.442 650.876 562.202 636.629C567.98 630.476 578.167 627.692 584.267 634.174C590.892 640.172 588.408 650.36 582.283 656.233C566.917 672.927 551.49 689.563 536.107 706.243C529.281 714.609 518.955 725.772 509.692 729.558Z" fill="#A00F44"/>
<path d="M118.963 215.956C101.237 216.288 93.1358 198.714 103.521 186.769C107.647 182.033 112.47 177.88 117.156 173.659C128.982 163.602 139.886 152.171 152.583 143.248C166.013 135.148 181.377 150.777 173.378 164.139C161.008 180.355 145.204 193.992 130.965 208.592C127.076 212.317 121.601 214.387 118.963 215.956Z" fill="#A00F44"/>
</g>
</svg>
