<svg width="1920" height="1090" viewBox="0 0 1920 1090" fill="none" xmlns="http://www.w3.org/2000/svg">
<g clip-path="url(#clip0_11_2)">
<path d="M1920 333.305C1909.08 281.108 1886.13 189.602 1841.63 120.651C1813.36 76.8309 1787.9 59.4319 1763.27 43.3218C1731.92 22.7007 1681.82 -0.497939 1617.73 11.1014C1455.39 26.5672 1293.06 41.3885 1130.73 56.2099C775.277 88.4303 419.825 118.073 64.3732 146.427C47.5 147.773 37.5 146.427 22.3907 152.871C13.4344 158.026 6.15743 165.115 0 172.203C0 470.564 0 769.569 0 1067.93C638.134 1067.93 1276.27 1067.93 1914.4 1067.93C1916.36 823.055 1918.04 578.18 1920 333.305Z" fill="#5A6978" fill-opacity="0.2"/>
<path d="M0 1081C0 878.119 0 406.08 0 203.199C13.1737 184.014 31.1124 160.513 53.2555 136.052C66.9898 120.704 86.8905 99.1209 114.92 78.497C140.707 59.3121 160.888 49.7196 182.19 40.1271C197.045 33.4124 218.908 22.8607 246.657 16.146C272.163 9.91085 302.5 8.01506 353.168 11.3497C375.031 12.7886 488.269 19.5033 510.131 20.9422C945.425 47.3215 1380.72 73.2212 1816.29 97.682C1832 98.5641 1846.56 98.6412 1863.94 102.478C1885.24 106.795 1904.02 113.989 1920 121.663C1920 351.883 1920 850.781 1920 1081C1280.09 1081 639.907 1081 0 1081Z" fill="url(#paint0_linear_11_2)"/>
<mask id="mask0_11_2" style="mask-type:alpha" maskUnits="userSpaceOnUse" x="0" y="0" width="1920" height="1163">
<path d="M1920 352.591C1909.08 296.016 1886.13 196.834 1841.63 122.099C1813.36 74.6043 1787.9 55.7459 1763.27 38.2844C1731.92 15.9338 1681.82 -9.21072 1617.73 3.36153C1455.39 20.1245 1293.06 36.1891 1130.73 52.2536C775.277 87.1765 419.825 119.306 64.3732 150.038C47.5 151.497 37.5 150.038 22.3907 157.022C13.4344 162.61 6.15743 170.293 0 177.976C0 501.362 0 825.447 0 1148.83C638.134 1148.83 1276.27 1148.83 1914.4 1148.83C1916.36 883.419 1918.04 618.005 1920 352.591Z" fill="#46C896" fill-opacity="0.2"/>
<path d="M0 1163C0 943.102 0 431.47 0 211.572C13.1737 190.778 31.1124 165.305 53.2555 138.793C66.9898 122.157 86.8905 98.7636 114.92 76.4099C140.707 55.6158 160.888 45.2187 182.19 34.8217C197.045 27.5437 218.908 16.107 246.657 8.82905C272.163 2.07095 302.5 0.0161493 353.168 3.63051C375.031 5.19007 488.269 12.468 510.131 14.0276C945.425 42.6195 1380.72 70.6916 1816.29 97.2041C1832 98.1602 1846.56 98.2438 1863.94 102.403C1885.24 107.081 1904.02 114.879 1920 123.197C1920 372.726 1920 913.471 1920 1163C1280.09 1163 639.907 1163 0 1163Z" fill="url(#paint1_linear_11_2)"/>
</mask>
<g mask="url(#mask0_11_2)">
<path d="M1111.21 1088.11C1106.04 1069.57 1095.47 1026.6 1097.72 970.142C1098.17 961.294 1101.99 879.557 1138.2 822.678C1167.9 775.911 1201.86 773.805 1232.68 772.119C1271.15 770.013 1300.39 786.023 1349.65 814.252C1379.79 831.526 1391.26 841.638 1419.38 860.598C1474.04 897.674 1528.93 934.751 1594.84 949.076C1649.27 960.873 1693.36 969.299 1738.8 923.796C1753.2 909.471 1790.76 871.973 1804.03 793.186C1815.95 721.982 1801.56 657.941 1795.03 628.869C1783.11 576.204 1766.47 545.025 1745.55 506.685C1698.08 419.892 1687.5 428.72 1642.07 355.008C1628.8 328.465 1605.86 281.276 1592.59 207.544C1576.62 119.066 1583.14 40.2784 1588.09 1.09521C1700.56 1.09521 1813.03 1.09521 1925.5 1.09521C1925.5 364.699 1925.5 728.302 1925.5 1091.9C1654.22 1090.64 1382.72 1089.38 1111.21 1088.11Z" fill="url(#paint2_linear_11_2)" fill-opacity="0.2"/>
<path d="M1268.67 -6.23584C1284.19 60.3335 1315.23 170.299 1374.39 271.838C1454.25 409.19 1538.83 450.901 1570.09 465.648C1743.97 547.806 1890.19 409.611 1930 368.743C1930 244.874 1930 121.425 1930 -2.44391C1709.56 -3.70789 1489.11 -4.97186 1268.67 -6.23584Z" fill="url(#paint3_linear_11_2)" fill-opacity="0.05"/>
<path d="M551.107 -6.23584C485.874 38.4246 448.309 105.836 429.639 145.441C397.922 213.274 384.2 278.58 362.156 385.596C340.337 491.349 329.315 581.512 321.667 646.817C304.571 790.91 310.42 807.342 296.923 870.119C284.326 928.262 258.908 1009.58 200.198 1089.21C133.39 1089.21 66.8077 1089.21 0 1089.21C0 725.605 0 361.581 0 -2.02259C183.777 -3.28656 367.33 -4.97186 551.107 -6.23584Z" fill="url(#paint4_linear_11_2)" fill-opacity="0.05"/>
<path d="M-1 1100.12C22.8438 1013.75 67.2576 865.008 134.965 743.666C237.538 559.547 343.486 486.237 393.648 452.952C458.656 409.556 544.584 370.372 645.583 368.687C811.815 365.738 934.183 464.328 973.998 499.298C1017.86 537.638 1122.46 639.178 1219.18 844.784C1262.15 936.211 1291.84 1023.43 1311.41 1089.15C875.023 1084.94 435.387 1104.33 -1 1100.12Z" fill="url(#paint5_linear_11_2)" fill-opacity="0.03"/>
</g>
</g>
<defs>
<linearGradient id="paint0_linear_11_2" x1="1877.97" y1="431.388" x2="0" y2="431.388" gradientUnits="userSpaceOnUse">
<stop stop-color="#AC124A"/>
<stop offset="1" stop-color="#35639B"/>
</linearGradient>
<linearGradient id="paint1_linear_11_2" x1="1877.97" y1="458.901" x2="0" y2="458.901" gradientUnits="userSpaceOnUse">
<stop stop-color="#46C896"/>
<stop offset="1" stop-color="#23AFB4"/>
</linearGradient>
<linearGradient id="paint2_linear_11_2" x1="1511.45" y1="1.09521" x2="1511.45" y2="1091.9" gradientUnits="userSpaceOnUse">
<stop stop-color="#486196" stop-opacity="0"/>
<stop offset="1" stop-color="#484949"/>
</linearGradient>
<linearGradient id="paint3_linear_11_2" x1="1599.34" y1="-6.23584" x2="1599.34" y2="491.261" gradientUnits="userSpaceOnUse">
<stop stop-color="#D9D9D9"/>
<stop offset="1" stop-color="#7D7D7D"/>
</linearGradient>
<linearGradient id="paint4_linear_11_2" x1="275.554" y1="-6.23584" x2="275.554" y2="1089.21" gradientUnits="userSpaceOnUse">
<stop stop-color="#D9D9D9"/>
<stop offset="1" stop-color="#9A9A9A"/>
</linearGradient>
<linearGradient id="paint5_linear_11_2" x1="655.205" y1="368.622" x2="655.205" y2="1100.72" gradientUnits="userSpaceOnUse">
<stop stop-color="#D9D9D9"/>
<stop offset="1" stop-color="#D9D9D9"/>
</linearGradient>
<clipPath id="clip0_11_2">
<rect width="1920" height="1090" fill="white"/>
</clipPath>
</defs>
</svg>
